<?xml version="1.0" encoding="UTF-8" standalone="no"?>
<svg
   xmlns="http://www.w3.org/2000/svg"
   viewBox="0 0 13.737856 19.631329"
   width="4mm">
  <path
     transform="translate(-77.855515,-130.29713)"
     style="fill:none;stroke:#000000;stroke-width:0.94470918;stroke-miterlimit:4;stroke-dasharray:none;stroke-opacity:1"
     d="m 91.121017,135.97037 q 0,0.98007 -0.287487,1.75106 -0.287486,0.77098 -0.823256,1.42436 -0.535771,0.65338 -1.751054,1.54197 l -1.045406,0.77099 q -0.940864,0.67951 -1.398229,1.43743 -0.457365,0.74485 -0.470433,1.63345 h -2.286824 q 0.02614,-0.90166 0.274419,-1.58118 0.261352,-0.67951 0.666446,-1.20221 0.405095,-0.52271 0.91473,-0.9278 0.509635,-0.41816 1.032338,-0.78405 0.522702,-0.37896 1.01927,-0.74486 0.509635,-0.37896 0.901662,-0.83632 0.392027,-0.45736 0.627243,-1.03234 0.248284,-0.57497 0.248284,-1.34596 0,-1.4897 -1.019271,-2.35216 -1.006202,-0.86246 -2.835661,-0.86246 -1.82946,0 -2.901,0.91473 -1.07154,0.91473 -1.254486,2.50897 l -2.404432,-0.15681 q 0.339756,-2.58737 2.03854,-3.97254 1.698783,-1.38516 4.495243,-1.38516 2.914067,0 4.586715,1.38516 1.672649,1.3721 1.672649,3.81573 z m -8.167229,13.48573 v -2.62658 h 2.548175 v 2.62658 z" />
</svg>
